<mxfile host="app.diagrams.net" agent="Mozilla/5.0 (Windows NT 10.0; Win64; x64) AppleWebKit/537.36 (KHTML, like Gecko) Chrome/137.0.0.0 Safari/537.36 Edg/137.0.0.0" version="27.1.6">
  <diagram id="u1kKAqMDHcXJbqzqGEmc" name="Page-1">
    <mxGraphModel dx="1426" dy="789" grid="1" gridSize="10" guides="1" tooltips="1" connect="1" arrows="1" fold="1" page="1" pageScale="1" pageWidth="850" pageHeight="1100" math="0" shadow="0">
      <root>
        <mxCell id="0" />
        <mxCell id="1" parent="0" />
        <mxCell id="sRRzYxuUaXjlA306II_p-1" value="Pengguna" style="swimlane;whiteSpace=wrap;html=1;startSize=40;" vertex="1" parent="1">
          <mxGeometry x="200" y="80" width="200" height="680" as="geometry" />
        </mxCell>
        <mxCell id="sRRzYxuUaXjlA306II_p-3" value="" style="ellipse;html=1;shape=startState;fillColor=#000000;strokeColor=#ff0000;" vertex="1" parent="sRRzYxuUaXjlA306II_p-1">
          <mxGeometry x="85" y="50" width="30" height="30" as="geometry" />
        </mxCell>
        <mxCell id="sRRzYxuUaXjlA306II_p-4" value="" style="edgeStyle=orthogonalEdgeStyle;html=1;verticalAlign=bottom;endArrow=open;endSize=8;strokeColor=#ff0000;rounded=0;" edge="1" source="sRRzYxuUaXjlA306II_p-3" parent="sRRzYxuUaXjlA306II_p-1">
          <mxGeometry relative="1" as="geometry">
            <mxPoint x="100" y="140" as="targetPoint" />
          </mxGeometry>
        </mxCell>
        <mxCell id="sRRzYxuUaXjlA306II_p-5" value="Membuka Website" style="rounded=1;whiteSpace=wrap;html=1;" vertex="1" parent="sRRzYxuUaXjlA306II_p-1">
          <mxGeometry x="40" y="140" width="120" height="60" as="geometry" />
        </mxCell>
        <mxCell id="sRRzYxuUaXjlA306II_p-14" value="Melihat Halaman Beranda" style="rounded=1;whiteSpace=wrap;html=1;" vertex="1" parent="sRRzYxuUaXjlA306II_p-1">
          <mxGeometry x="40" y="280" width="120" height="60" as="geometry" />
        </mxCell>
        <mxCell id="sRRzYxuUaXjlA306II_p-16" value="Memilih Menu Login" style="rounded=1;whiteSpace=wrap;html=1;" vertex="1" parent="sRRzYxuUaXjlA306II_p-1">
          <mxGeometry x="40" y="360" width="120" height="60" as="geometry" />
        </mxCell>
        <mxCell id="sRRzYxuUaXjlA306II_p-25" value="Melihat Halaman Login" style="rounded=1;whiteSpace=wrap;html=1;" vertex="1" parent="sRRzYxuUaXjlA306II_p-1">
          <mxGeometry x="40" y="510" width="120" height="60" as="geometry" />
        </mxCell>
        <mxCell id="sRRzYxuUaXjlA306II_p-27" value="" style="ellipse;html=1;shape=endState;fillColor=#000000;strokeColor=#ff0000;" vertex="1" parent="sRRzYxuUaXjlA306II_p-1">
          <mxGeometry x="85" y="600" width="30" height="30" as="geometry" />
        </mxCell>
        <mxCell id="sRRzYxuUaXjlA306II_p-2" value="Sistem" style="swimlane;whiteSpace=wrap;html=1;startSize=40;" vertex="1" parent="1">
          <mxGeometry x="400" y="80" width="200" height="680" as="geometry" />
        </mxCell>
        <mxCell id="sRRzYxuUaXjlA306II_p-9" value="Menampilkan Halaman Beranda" style="rounded=1;whiteSpace=wrap;html=1;" vertex="1" parent="sRRzYxuUaXjlA306II_p-2">
          <mxGeometry x="50" y="140" width="120" height="60" as="geometry" />
        </mxCell>
        <mxCell id="sRRzYxuUaXjlA306II_p-18" value="Menampilkan Halaman Login" style="rounded=1;whiteSpace=wrap;html=1;" vertex="1" parent="sRRzYxuUaXjlA306II_p-2">
          <mxGeometry x="40" y="360" width="120" height="60" as="geometry" />
        </mxCell>
        <mxCell id="sRRzYxuUaXjlA306II_p-8" value="" style="endArrow=classic;html=1;rounded=0;exitX=1;exitY=0.5;exitDx=0;exitDy=0;" edge="1" parent="1" source="sRRzYxuUaXjlA306II_p-5">
          <mxGeometry width="50" height="50" relative="1" as="geometry">
            <mxPoint x="400" y="430" as="sourcePoint" />
            <mxPoint x="450" y="250" as="targetPoint" />
          </mxGeometry>
        </mxCell>
        <mxCell id="sRRzYxuUaXjlA306II_p-11" value="" style="endArrow=none;html=1;rounded=0;entryX=0.567;entryY=1.017;entryDx=0;entryDy=0;entryPerimeter=0;" edge="1" parent="1" target="sRRzYxuUaXjlA306II_p-9">
          <mxGeometry width="50" height="50" relative="1" as="geometry">
            <mxPoint x="520" y="320" as="sourcePoint" />
            <mxPoint x="450" y="380" as="targetPoint" />
          </mxGeometry>
        </mxCell>
        <mxCell id="sRRzYxuUaXjlA306II_p-12" value="" style="endArrow=none;html=1;rounded=0;" edge="1" parent="1">
          <mxGeometry width="50" height="50" relative="1" as="geometry">
            <mxPoint x="300" y="320" as="sourcePoint" />
            <mxPoint x="520" y="320" as="targetPoint" />
          </mxGeometry>
        </mxCell>
        <mxCell id="sRRzYxuUaXjlA306II_p-13" value="" style="endArrow=classic;html=1;rounded=0;" edge="1" parent="1">
          <mxGeometry width="50" height="50" relative="1" as="geometry">
            <mxPoint x="300" y="320" as="sourcePoint" />
            <mxPoint x="300" y="360" as="targetPoint" />
          </mxGeometry>
        </mxCell>
        <mxCell id="sRRzYxuUaXjlA306II_p-15" value="" style="endArrow=classic;html=1;rounded=0;exitX=0.5;exitY=1;exitDx=0;exitDy=0;" edge="1" parent="1" source="sRRzYxuUaXjlA306II_p-14">
          <mxGeometry width="50" height="50" relative="1" as="geometry">
            <mxPoint x="400" y="430" as="sourcePoint" />
            <mxPoint x="300" y="440" as="targetPoint" />
          </mxGeometry>
        </mxCell>
        <mxCell id="sRRzYxuUaXjlA306II_p-17" value="" style="endArrow=classic;html=1;rounded=0;exitX=1;exitY=0.5;exitDx=0;exitDy=0;" edge="1" parent="1" source="sRRzYxuUaXjlA306II_p-16" target="sRRzYxuUaXjlA306II_p-18">
          <mxGeometry width="50" height="50" relative="1" as="geometry">
            <mxPoint x="400" y="430" as="sourcePoint" />
            <mxPoint x="450" y="470" as="targetPoint" />
          </mxGeometry>
        </mxCell>
        <mxCell id="sRRzYxuUaXjlA306II_p-22" value="" style="endArrow=none;html=1;rounded=0;entryX=0.633;entryY=1;entryDx=0;entryDy=0;entryPerimeter=0;" edge="1" parent="1" target="sRRzYxuUaXjlA306II_p-18">
          <mxGeometry width="50" height="50" relative="1" as="geometry">
            <mxPoint x="520" y="550" as="sourcePoint" />
            <mxPoint x="450" y="380" as="targetPoint" />
          </mxGeometry>
        </mxCell>
        <mxCell id="sRRzYxuUaXjlA306II_p-23" value="" style="endArrow=none;html=1;rounded=0;" edge="1" parent="1">
          <mxGeometry width="50" height="50" relative="1" as="geometry">
            <mxPoint x="300" y="550" as="sourcePoint" />
            <mxPoint x="520" y="550" as="targetPoint" />
          </mxGeometry>
        </mxCell>
        <mxCell id="sRRzYxuUaXjlA306II_p-24" value="" style="endArrow=classic;html=1;rounded=0;" edge="1" parent="1" target="sRRzYxuUaXjlA306II_p-25">
          <mxGeometry width="50" height="50" relative="1" as="geometry">
            <mxPoint x="300" y="550" as="sourcePoint" />
            <mxPoint x="300" y="580" as="targetPoint" />
          </mxGeometry>
        </mxCell>
        <mxCell id="sRRzYxuUaXjlA306II_p-26" value="" style="endArrow=classic;html=1;rounded=0;exitX=0.5;exitY=1;exitDx=0;exitDy=0;" edge="1" parent="1" source="sRRzYxuUaXjlA306II_p-25">
          <mxGeometry width="50" height="50" relative="1" as="geometry">
            <mxPoint x="400" y="430" as="sourcePoint" />
            <mxPoint x="300" y="680" as="targetPoint" />
          </mxGeometry>
        </mxCell>
      </root>
    </mxGraphModel>
  </diagram>
</mxfile>
